<svg width="16" height="18" viewBox="0 0 16 18" fill="none" xmlns="http://www.w3.org/2000/svg">
<path d="M12.2 4C12.6774 4 13.1352 4.19754 13.4728 4.54917C13.8104 4.90081 14 5.37772 14 5.875V12.125C14 12.6223 13.8104 13.0992 13.4728 13.4508C13.1352 13.8025 12.6774 14 12.2 14H3.8C3.32261 14 2.86477 13.8025 2.52721 13.4508C2.18964 13.0992 2 12.6223 2 12.125V5.875C2 5.37772 2.18964 4.90081 2.52721 4.54917C2.86477 4.19754 3.32261 4 3.8 4H12.2ZM5.9 6.5C5.50218 6.5 5.12064 6.66462 4.83934 6.95765C4.55804 7.25067 4.4 7.6481 4.4 8.0625V9.9375C4.4 10.3519 4.55804 10.7493 4.83934 11.0424C5.12064 11.3354 5.50218 11.5 5.9 11.5C6.29782 11.5 6.67936 11.3354 6.96066 11.0424C7.24196 10.7493 7.4 10.3519 7.4 9.9375C7.4 9.77174 7.33679 9.61277 7.22426 9.49556C7.11174 9.37835 6.95913 9.3125 6.8 9.3125C6.64087 9.3125 6.48826 9.37835 6.37574 9.49556C6.26321 9.61277 6.2 9.77174 6.2 9.9375C6.2 10.0204 6.16839 10.0999 6.11213 10.1585C6.05587 10.2171 5.97957 10.25 5.9 10.25C5.82044 10.25 5.74413 10.2171 5.68787 10.1585C5.63161 10.0999 5.6 10.0204 5.6 9.9375V8.0625C5.6 7.97962 5.63161 7.90013 5.68787 7.84153C5.74413 7.78292 5.82044 7.75 5.9 7.75C5.97957 7.75 6.05587 7.78292 6.11213 7.84153C6.16839 7.90013 6.2 7.97962 6.2 8.0625C6.2 8.22826 6.26321 8.38723 6.37574 8.50444C6.48826 8.62165 6.64087 8.6875 6.8 8.6875C6.95913 8.6875 7.11174 8.62165 7.22426 8.50444C7.33679 8.38723 7.4 8.22826 7.4 8.0625C7.4 7.6481 7.24196 7.25067 6.96066 6.95765C6.67936 6.66462 6.29782 6.5 5.9 6.5ZM10.1 6.5C9.70218 6.5 9.32064 6.66462 9.03934 6.95765C8.75804 7.25067 8.6 7.6481 8.6 8.0625V9.9375C8.6 10.3519 8.75804 10.7493 9.03934 11.0424C9.32064 11.3354 9.70218 11.5 10.1 11.5C10.4978 11.5 10.8794 11.3354 11.1607 11.0424C11.442 10.7493 11.6 10.3519 11.6 9.9375C11.6 9.77174 11.5368 9.61277 11.4243 9.49556C11.3117 9.37835 11.1591 9.3125 11 9.3125C10.8409 9.3125 10.6883 9.37835 10.5757 9.49556C10.4632 9.61277 10.4 9.77174 10.4 9.9375C10.4 10.0204 10.3684 10.0999 10.3121 10.1585C10.2559 10.2171 10.1796 10.25 10.1 10.25C10.0204 10.25 9.94413 10.2171 9.88787 10.1585C9.83161 10.0999 9.8 10.0204 9.8 9.9375V8.0625C9.8 7.97962 9.83161 7.90013 9.88787 7.84153C9.94413 7.78292 10.0204 7.75 10.1 7.75C10.1796 7.75 10.2559 7.78292 10.3121 7.84153C10.3684 7.90013 10.4 7.97962 10.4 8.0625C10.4 8.22826 10.4632 8.38723 10.5757 8.50444C10.6883 8.62165 10.8409 8.6875 11 8.6875C11.1591 8.6875 11.3117 8.62165 11.4243 8.50444C11.5368 8.38723 11.6 8.22826 11.6 8.0625C11.6 7.6481 11.442 7.25067 11.1607 6.95765C10.8794 6.66462 10.4978 6.5 10.1 6.5Z" fill="black"/>
</svg>
