<svg width="79" height="79" viewBox="0 0 79 79" fill="none" xmlns="http://www.w3.org/2000/svg">
<g clip-path="url(#clip0_18_819)">
<path d="M55.9583 10.9942C60.923 13.8608 65.053 17.9743 67.9394 22.9275C70.8258 27.8807 72.3685 33.5019 72.4148 39.2345C72.4611 44.9672 71.0094 50.6126 68.2034 55.6118C65.3974 60.611 61.3344 64.7906 56.4167 67.737C51.4989 70.6834 45.8969 72.2943 40.1652 72.4103C34.4335 72.5263 28.771 71.1434 23.738 68.3984C18.7051 65.6534 14.4763 61.6415 11.4703 56.76C8.46438 51.8784 6.78545 46.2964 6.59977 40.5666L6.58331 39.5L6.59977 38.4335C6.78412 32.7488 8.43832 27.2088 11.4011 22.3537C14.3639 17.4986 18.5342 13.4941 23.5054 10.7305C28.4766 7.96692 34.0791 6.53861 39.7666 6.58483C45.4542 6.63105 51.0327 8.15021 55.9583 10.9942ZM51.7022 30.5895C51.1354 30.0228 50.3813 29.6823 49.5813 29.632C48.7813 29.5817 47.9905 29.825 47.3572 30.3163L47.0478 30.5895L36.2083 41.4257L31.9522 37.1728L31.6428 36.8996C31.0094 36.4087 30.2187 36.1657 29.4189 36.2161C28.6192 36.2666 27.8653 36.6071 27.2986 37.1737C26.732 37.7404 26.3915 38.4942 26.3411 39.294C26.2906 40.0938 26.5336 40.8845 27.0246 41.5178L27.2978 41.8273L33.8811 48.4106L34.1905 48.6838C34.7678 49.1317 35.4777 49.3748 36.2083 49.3748C36.939 49.3748 37.6488 49.1317 38.2261 48.6838L38.5355 48.4106L51.7022 35.2439L51.9754 34.9345C52.4667 34.3012 52.71 33.5104 52.6597 32.7104C52.6094 31.9104 52.2689 31.1563 51.7022 30.5895Z" fill="#08A051"/>
</g>
<defs>
<clipPath id="clip0_18_819">
<rect width="79" height="79" fill="white"/>
</clipPath>
</defs>
</svg>
