<svg width="30" height="30" viewBox="0 0 30 30" fill="none" xmlns="http://www.w3.org/2000/svg">
<g clip-path="url(#clip0_1_10)">
<path d="M17.7938 23.75C18.875 23.75 19.4463 25.03 18.725 25.835C18.2565 26.3593 17.6824 26.7787 17.0405 27.0656C16.3985 27.3526 15.7032 27.5006 15 27.5C14.2969 27.5006 13.6015 27.3526 12.9596 27.0656C12.3176 26.7787 11.7436 26.3593 11.275 25.835C10.585 25.065 11.0775 23.8612 12.0675 23.7587L12.205 23.7512L17.7938 23.75Z" fill="black"/>
<path d="M15 2.5C16.6975 2.5 18.1325 3.62875 18.5937 5.17625L18.6512 5.39L18.6612 5.44375C20.0392 6.22113 21.2135 7.31388 22.0878 8.6325C22.9621 9.95112 23.5116 11.4581 23.6912 13.03L23.7262 13.3888L23.75 13.75V17.4137L23.7762 17.5838C23.9474 18.5048 24.4571 19.3284 25.205 19.8925L25.4137 20.0387L25.6162 20.1625C26.6912 20.7712 26.3162 22.37 25.145 22.4925L25 22.5H5C3.715 22.5 3.26625 20.795 4.38375 20.1625C4.86003 19.893 5.27155 19.5224 5.58942 19.077C5.90729 18.6315 6.12379 18.1218 6.22375 17.5838L6.25 17.405L6.25125 13.6925C6.32746 12.0598 6.80269 10.4708 7.63535 9.06433C8.46801 7.65791 9.6327 6.47701 11.0275 5.625L11.3375 5.4425L11.35 5.38875C11.5268 4.64128 11.9287 3.96605 12.5014 3.45417C13.074 2.94229 13.7899 2.61842 14.5525 2.52625L14.78 2.505L15 2.5Z" fill="black"/>
</g>
<defs>
<clipPath id="clip0_1_10">
<rect width="30" height="30" fill="white"/>
</clipPath>
</defs>
</svg>
