<svg width="13" height="13" viewBox="0 0 13 13" fill="none" xmlns="http://www.w3.org/2000/svg">
<g clip-path="url(#clip0_1_33)">
<path d="M8.125 5.41667L10.5912 4.18384C10.6738 4.14258 10.7655 4.1231 10.8577 4.12726C10.9499 4.13141 11.0395 4.15905 11.118 4.20756C11.1966 4.25608 11.2614 4.32384 11.3063 4.40444C11.3513 4.48504 11.375 4.57579 11.375 4.66809V8.33192C11.375 8.42422 11.3513 8.51497 11.3063 8.59556C11.2614 8.67616 11.1966 8.74393 11.118 8.79244C11.0395 8.84095 10.9499 8.8686 10.8577 8.87275C10.7655 8.8769 10.6738 8.85743 10.5912 8.81617L8.125 7.58334V5.41667Z" fill="#969292" stroke="#969292" stroke-linecap="round" stroke-linejoin="round"/>
<path d="M1.625 4.33333C1.625 4.04602 1.73914 3.77047 1.9423 3.5673C2.14547 3.36414 2.42102 3.25 2.70833 3.25H7.04167C7.32898 3.25 7.60453 3.36414 7.8077 3.5673C8.01086 3.77047 8.125 4.04602 8.125 4.33333V8.66667C8.125 8.95398 8.01086 9.22953 7.8077 9.4327C7.60453 9.63586 7.32898 9.75 7.04167 9.75H2.70833C2.42102 9.75 2.14547 9.63586 1.9423 9.4327C1.73914 9.22953 1.625 8.95398 1.625 8.66667V4.33333Z" fill="#969292" stroke="#969292" stroke-linecap="round" stroke-linejoin="round"/>
</g>
<defs>
<clipPath id="clip0_1_33">
<rect width="13" height="13" fill="white"/>
</clipPath>
</defs>
</svg>
