<svg width="13" height="13" viewBox="0 0 13 13" fill="none" xmlns="http://www.w3.org/2000/svg">
<g clip-path="url(#clip0_1_21)">
<path d="M6.49996 1.08334C7.03562 1.08334 7.55925 1.24218 8.00463 1.53978C8.45001 1.83738 8.79715 2.26036 9.00213 2.75524C9.20712 3.25013 9.26076 3.79468 9.15625 4.32005C9.05175 4.84541 8.79381 5.32799 8.41504 5.70676C8.03627 6.08553 7.55369 6.34347 7.02833 6.44797C6.50296 6.55247 5.95841 6.49884 5.46353 6.29385C4.96864 6.08886 4.54566 5.74173 4.24806 5.29635C3.95047 4.85096 3.79163 4.32733 3.79163 3.79168L3.79433 3.67414C3.82462 2.97688 4.12291 2.31822 4.627 1.83553C5.13108 1.35285 5.80204 1.08338 6.49996 1.08334Z" fill="#969292"/>
<path d="M7.58337 7.58334C8.30167 7.58334 8.99054 7.86868 9.49846 8.3766C10.0064 8.88451 10.2917 9.57338 10.2917 10.2917V10.8333C10.2917 11.1207 10.1776 11.3962 9.97441 11.5994C9.77124 11.8025 9.49569 11.9167 9.20837 11.9167H3.79171C3.50439 11.9167 3.22884 11.8025 3.02567 11.5994C2.82251 11.3962 2.70837 11.1207 2.70837 10.8333V10.2917C2.70837 9.57338 2.99372 8.88451 3.50163 8.3766C4.00954 7.86868 4.69841 7.58334 5.41671 7.58334H7.58337Z" fill="#969292"/>
</g>
<defs>
<clipPath id="clip0_1_21">
<rect width="13" height="13" fill="white"/>
</clipPath>
</defs>
</svg>
