<svg width="36" height="36" viewBox="0 0 36 36" fill="none" xmlns="http://www.w3.org/2000/svg">
<path d="M22.4265 26.6642C23.1198 26.7371 23.7558 27.0824 24.1946 27.6242C24.6333 28.166 24.8389 28.8599 24.766 29.5532C24.8389 28.8599 25.1842 28.2239 25.726 27.7851C26.2678 27.3464 26.9617 27.1408 27.655 27.2137C26.9617 27.1408 26.3257 26.7955 25.8869 26.2537C25.4482 25.7119 25.2426 25.018 25.3155 24.3247C25.2426 25.018 24.8973 25.654 24.3555 26.0928C23.8137 26.5315 23.1198 26.7371 22.4265 26.6642ZM24.0748 10.9785C24.7681 11.0514 25.4041 11.3967 25.8429 11.9385C26.2816 12.4803 26.4872 13.1742 26.4143 13.8675C26.4872 13.1742 26.8325 12.5382 27.3743 12.0994C27.9161 11.6607 28.61 11.4551 29.3033 11.528C28.61 11.4551 27.974 11.1098 27.5352 10.568C27.0964 10.0262 26.8909 9.33231 26.9637 8.63896C26.8909 9.33231 26.5456 9.96832 26.0038 10.4071C25.462 10.8458 24.7681 11.0514 24.0748 10.9785ZM13.2765 25.7027C13.4951 23.6227 14.531 21.7146 16.1564 20.3984C17.7817 19.0821 19.8634 18.4654 21.9435 18.684C19.8634 18.4654 17.9554 17.4295 16.6391 15.8042C15.3229 14.1788 14.7062 12.0971 14.9248 10.017C14.7062 12.0971 13.6703 14.0051 12.0449 15.3214C10.4195 16.6376 8.33783 17.2543 6.25778 17.0357C8.33783 17.2543 10.2459 18.2902 11.5621 19.9156C12.8784 21.541 13.4951 23.6227 13.2765 25.7027Z" fill="#0040FF" stroke="#0040FF" stroke-linecap="round" stroke-linejoin="round"/>
</svg>
